<svg id="Capa_1" enable-background="new 0 0 512 512" height="512" viewBox="0 0 512 512" width="512" xmlns="http://www.w3.org/2000/svg"><circle cx="256" cy="256" fill="#2864f0" r="256"/><path d="m186.481 403.421 105.999 106c113.059-16.13 202.306-106.128 217.299-219.55l-183.136-183.137z" fill="#27488f"/><path d="m326.081 403.421-70.081 52.357-70.081-52.357v-296.687l70.081-52.356 70.081 52.356z" fill="#cff9ff"/><path d="m256 54.378v401.399l70.081-52.356v-296.687z" fill="#96e8ff"/><path d="m185.919 403.421 70.081 52.357 70.081-52.357z" fill="#4ab8f7"/><path d="m256 403.421v52.356l70.081-52.356z" fill="#368dcf"/><path d="m185.919 106.734 41.616-8.965h56.93l41.616 8.965v296.687l-41.616 8.966h-56.93l-41.616-8.966z" fill="#80dbff"/><path d="m284.465 97.769h-28.465v314.618h28.465l41.616-8.966v-296.687z" fill="#4ab8f7"/><path d="m227.535 97.769h56.931v314.617h-56.931z" fill="#96e8ff"/><path d="m256 97.769h28.465v314.618h-28.465z" fill="#19cffc"/><path d="m256 54.378-28.465 43.391h56.93z" fill="#e3fbff"/><path d="m256 54.378v43.391h28.465z" fill="#b5efff"/><path d="m256 455.778 28.465-43.391h-56.93z" fill="#19cffc"/><path d="m256 412.387v43.39l28.465-43.39z" fill="#1ea1e3"/><path d="m369.541 153.627h-21.248v-21.248h-29.277v21.248h-21.248v29.277h21.248v21.247h29.277v-21.247h21.248z" fill="#fff"/><path d="m348.293 153.627v-21.248h-14.722v71.772h14.722v-21.248h21.248v-29.276z" fill="#e9edf5"/></svg>