<svg id="Capa_1" enable-background="new 0 0 512 512" height="512" viewBox="0 0 512 512" width="512" xmlns="http://www.w3.org/2000/svg"><circle cx="256" cy="256" fill="#80dbff" r="256"/><path d="m512 256c0-2.198-.028-4.39-.083-6.575l-128.517-128.517-16.449 49-110.951-110.951-103.976 350.519 102.52 102.52c.485.003.971.004 1.457.004 141.384 0 255.999-114.615 255.999-256z" fill="#4ab8f7"/><path d="m111.668 308.621c0-79.713 144.332-249.664 144.332-249.664s144.332 169.951 144.332 249.664-64.62 144.332-144.332 144.332-144.332-64.62-144.332-144.332z" fill="#2864f0"/><path d="m256 58.957v393.996c79.712 0 144.332-64.62 144.332-144.332 0-79.713-144.332-249.664-144.332-249.664z" fill="#27488f"/><path d="m210.775 116.34 45.225 41.823 45.225-41.823-45.225-57.383z" fill="#4a7aff"/><path d="m256 58.957v99.206l45.225-41.823z" fill="#0053bf"/><path d="m399.702 299-58.292-6-85.41 98.316 75.983 40.029c41.024-25.454 68.349-70.895 68.349-122.724 0-3.078-.216-6.29-.63-9.621z" fill="#0053bf"/><path d="m112.298 299 58.292-6 85.41 98.316-75.983 40.029c-41.024-25.454-68.349-70.895-68.349-122.724 0-3.078.216-6.29.63-9.621z" fill="#4a7aff"/><path d="m170.589 305.905c0-47.171 85.411-147.742 85.411-147.742s85.411 100.571 85.411 147.742-38.24 85.411-85.411 85.411-85.411-38.24-85.411-85.411z" fill="#4a98f7"/><path d="m256 158.163v233.153c47.171 0 85.411-38.24 85.411-85.411s-85.411-147.742-85.411-147.742z" fill="#2864f0"/><path d="m410.804 148.311h-27.404v-27.403h-37.758v27.403h-27.404v37.758h27.404v27.404h37.758v-27.404h27.404z" fill="#fff"/><path d="m383.4 148.311v-27.403h-19.9v92.565h19.9v-27.404h27.404v-37.758z" fill="#e9edf5"/></svg>