<svg id="Capa_1" enable-background="new 0 0 512 512" height="512" viewBox="0 0 512 512" width="512" xmlns="http://www.w3.org/2000/svg"><circle cx="256" cy="256" fill="#ffd400" r="256"/><path d="m325.899 502.341c107.409-30.418 186.101-129.19 186.101-246.341 0-3.767-.082-7.514-.243-11.241l-90.297-90.297-151.58 137.637-71.631 82.593z" fill="#ffa300"/><path d="m93 120.596h210.5v210.5h-210.5z" fill="#ff468c" transform="matrix(.707 .707 -.707 .707 217.763 -74.035)"/><path d="m347.096 225.846-148.846-148.846-.083.083v297.525l.083.084z" fill="#be1964"/><path d="m151.4 179.004h93.7v93.686h-93.7z" fill="#ff73a5" transform="matrix(.707 .707 -.707 .707 217.788 -74.033)"/><path d="m264.5 225.857-66.25-66.261-.083.083v132.336l.083.084z" fill="#ff468c"/><path d="m198.25 77v82.596l66.25 66.261 82.596-.011z" fill="#a00f5a"/><path d="m49.404 225.846 82.596-.008 66.25 66.26v82.594z" fill="#d72878"/><path d="m279.549 191.804h164.717v164.717h-164.717z" fill="#029995" transform="matrix(.707 .707 -.707 .707 299.863 -175.607)"/><path d="m478.381 274.163-116.473-116.473-.075.075v232.796l.075.075z" fill="#026363"/><path d="m325.248 237.509h73.321v73.31h-73.321z" fill="#00bd9d" transform="matrix(.707 .707 -.707 .707 299.899 -175.612)"/><path d="m413.749 274.171-51.841-51.849-.075.074v103.535l.075.075z" fill="#0f9887"/><path d="m361.908 157.69v64.632l51.841 51.849 64.632-.008z" fill="#088a7a"/><path d="m245.435 274.163 64.632-.007 51.841 51.85v64.63z" fill="#11a892"/><path d="m442.449 175.449h-20.988v-20.987h-28.918v20.987h-20.988v28.919h20.988v20.987h28.918v-20.987h20.988z" fill="#fff"/><path d="m421.461 175.449v-20.987h-15.866v70.893h15.866v-20.987h20.988v-28.919z" fill="#e9edf5"/></svg>