<svg id="Capa_1" enable-background="new 0 0 512 512" height="512" viewBox="0 0 512 512" width="512" xmlns="http://www.w3.org/2000/svg"><circle cx="256" cy="256" fill="#ffd400" r="256"/><path d="m512 256c0-13.563-1.055-26.88-3.087-39.873l-109.253-109.252-275.936 274.579 130.541 130.541c.578.004 1.156.006 1.735.006 141.385-.001 256-114.616 256-256.001z" fill="#ffa300"/><path d="m388.275 381.454.001-250.908-132.276-76.369-132.275 76.369-.001 250.908 132.276 76.369z" fill="#029995"/><path d="m388.276 130.546-132.276-76.369v403.646l132.276-76.369z" fill="#007f82"/><path d="m330.66 332.628v-153.256l-74.66-46.648-74.66 46.648v153.256l74.66 46.647z" fill="#22c4bc"/><path d="m330.66 179.372-74.66-46.647v246.55l74.66-46.647z" fill="#1aada2"/><path d="m388.276 130.546-57.616 48.826-74.66-46.648v-78.547z" fill="#029995"/><path d="m181.34 332.628 74.66 46.647v78.548l-132.276-76.369z" fill="#1aada2"/><path d="m330.66 332.628 57.615 48.826-132.275 76.369v-78.548z" fill="#026363"/><path d="m256 132.724v-78.547l-132.275 76.369 57.615 48.826z" fill="#0e877b"/><path d="m427.065 134.278h-27.405v-27.403h-37.758v27.403h-27.403v37.758h27.403v27.403h37.758v-27.403h27.405z" fill="#fff"/><path d="m399.66 134.278v-27.403h-20.16v92.564h20.16v-27.403h27.405v-37.758z" fill="#e9edf5"/></svg>